<svg id="Layer_1" data-name="Layer 1" xmlns="http://www.w3.org/2000/svg" viewBox="0 0 407.1 393.3"><defs><style>.cls-1{fill:#2b3c54;}.cls-2{fill:#3c4f66;}.cls-3{fill:#1a2639;}</style></defs><path class="cls-1" d="M87.6,236.26c8.45-2.73,17.12-.84,25.68-1.2,8.38-.34,16.79-.38,25.16,0,5.88.29,7.66-1.81,7.61-7.64-.26-26.73.52-53.49-.32-80.2-.62-19.63,12.39-36.23,35.48-36.39,62.91-.44,125.83-.59,188.73.09,21.67.23,35.36,13.15,35.42,41.68.11,53.21,0,106.43,0,159.64,0,23.06.05,46.13,0,69.2-.05,21.87-6.46,40.78-25.93,53.1a48.7,48.7,0,0,1-26,7.79q-122.67.21-245.34,0c.18-3.56,3.27-3.72,5.57-4.52,12.61-4.39,21.16-13,26.45-25.09,2.31-4.87,2.73-10,2.72-15.31q-.09-73.31,0-146.6c0-11-.21-10.9-11.6-11.27-13.8-.44-27.68,1.62-41.4-1.35A4.92,4.92,0,0,1,87.6,236.26Z" transform="translate(-56.28 -49.36)"/><path class="cls-1" d="M87.6,236.26l1.66.45c4.09,1.49,5.68,5.15,7.52,8.62,10.48,19.71,18,40.55,24,62,7.74,28,15.13,56,20.51,84.55,1.51,8,2.56,16,0,23.93-4.91,11.61-13.48,19.35-25.18,23.74-2.64,1-5.32,1.86-8,2.79C79.64,445.31,62,426.64,57.35,408.51a40.18,40.18,0,0,1-1.06-10.09q0-64.38,0-128.77C56.31,251,68.82,237.72,87.6,236.26Z" transform="translate(-56.28 -49.36)"/><path class="cls-1" d="M133.69,67.83a17.93,17.93,0,0,1,18.48,17.3c.26,9.74-8.37,18.44-18.45,18.58-9.87.13-17.52-7.7-17.66-18.07S123.14,68,133.69,67.83Z" transform="translate(-56.28 -49.36)"/><path class="cls-1" d="M97.21,101.23c-5-.15-7.83-2.59-7.89-7.73s2.45-8,7.55-8c4.89,0,8.06,2.85,8.06,7.77C104.92,98,102.5,101.21,97.21,101.23Z" transform="translate(-56.28 -49.36)"/><path class="cls-1" d="M110.4,65c-7.16.07-9.78-3-9.74-7.76s3.17-7.78,8-7.88c5.06-.12,7.63,2.93,7.62,7.92S113.55,64.93,110.4,65Z" transform="translate(-56.28 -49.36)"/><path class="cls-1" d="M441.81,306.76c-.12,5-2.07,8.28-7.3,8.3-4.92,0-8.05-3-8.2-7.56s2.73-7.8,7.66-8.07C439.1,299.14,441.51,302,441.81,306.76Z" transform="translate(-56.28 -49.36)"/><path class="cls-1" d="M459.34,286.94c2.54.05,4,1.3,4,3.75a3.46,3.46,0,0,1-3.87,3.8,3.3,3.3,0,0,1-3.53-3.32A3.57,3.57,0,0,1,459.34,286.94Z" transform="translate(-56.28 -49.36)"/><path class="cls-2" d="M141.26,415.83c-1.08-23.05-7.17-45.15-12.55-67.39-9.34-38.6-19.51-76.89-39.45-111.73,16.47-.05,32.94,0,49.4-.25,5.24-.1,7.41,1.28,7.39,7-.18,51.75-.07,103.51-.18,155.27A32.18,32.18,0,0,1,141.26,415.83Z" transform="translate(-56.28 -49.36)"/><rect class="cls-3" x="122.16" y="212.23" width="127.45" height="17.27" rx="4.34"/><rect class="cls-3" x="122.16" y="261.09" width="196.61" height="17.27" rx="4.34"/><rect class="cls-3" x="122.16" y="312.85" width="196.61" height="17.27" rx="4.34"/><rect class="cls-3" x="122.16" y="103.38" width="196.61" height="79.93" rx="8.21"/></svg>