<svg id="Layer_1" data-name="Layer 1" xmlns="http://www.w3.org/2000/svg" viewBox="0 0 347.86 427.61"><defs><style>.cls-1,.cls-2,.cls-3{fill:#2f89fc;}.cls-1{opacity:0.25;}.cls-3{opacity:0.5;}</style></defs><path class="cls-1" d="M436.09,72.81V443.36a28.54,28.54,0,0,1-28.53,28.53H116.76a28.54,28.54,0,0,1-28.53-28.53V72.81a28.53,28.53,0,0,1,28.53-28.53h290.8A28.53,28.53,0,0,1,436.09,72.81Z" transform="translate(-88.23 -44.28)"/><path class="cls-1" d="M436.09,72.81V443.36a28.54,28.54,0,0,1-28.53,28.53H116.76a28.54,28.54,0,0,1-28.53-28.53V72.81a28.53,28.53,0,0,1,28.53-28.53h290.8A28.53,28.53,0,0,1,436.09,72.81Z" transform="translate(-88.23 -44.28)"/><path class="cls-2" d="M436.09,281.56v161.8a28.54,28.54,0,0,1-28.53,28.53H116.76a28.42,28.42,0,0,1-21.55-9.84L212.46,294.61l63.34-90.46a28.53,28.53,0,0,1,39.73-7Z" transform="translate(-88.23 -44.28)"/><path class="cls-3" d="M412.89,469.77l-1.28,1.83a28.5,28.5,0,0,1-4.05.29H116.76a28.54,28.54,0,0,1-28.53-28.53V327L128,270.25a28.53,28.53,0,0,1,39.73-7l44.78,31.36L405.89,430A28.53,28.53,0,0,1,412.89,469.77Z" transform="translate(-88.23 -44.28)"/><circle class="cls-2" cx="115.95" cy="100.62" r="51.84"/></svg>